<?xml version="1.0" encoding="UTF-8"?>
<svg width="813px" height="616px" viewBox="0 0 813 616" version="1.1" xmlns="http://www.w3.org/2000/svg" xmlns:xlink="http://www.w3.org/1999/xlink">
    <!-- Generator: Sketch 57.1 (83088) - https://sketch.com -->
    <title>Grid</title>
    <desc>Created with Sketch.</desc>
    <defs>
        <polygon id="path-1" points="0 0 813 0 813 616 0 616"></polygon>
    </defs>
    <g id="Page-1" stroke="none" stroke-width="1" fill="none" fill-rule="evenodd">
        <g id="Desktop-HD" transform="translate(-212.000000, -204.000000)">
            <g id="Grid" transform="translate(212.000000, 204.000000)">
                <mask id="mask-2" fill="white">
                    <use xlink:href="#path-1"></use>
                </mask>
                <use id="Mask" fill="#FFFFFF" xlink:href="#path-1"></use>
                <path d="M34.5,0 L34.5,616" id="Path-3" stroke="#F4F4F4" mask="url(#mask-2)"></path>
                <path d="M84.7341508,0 L84.7341508,616" id="Path-3-Copy" stroke="#F4F4F4" mask="url(#mask-2)"></path>
                <path d="M134.734151,0 L134.734151,616" id="Path-3-Copy-2" stroke="#F4F4F4" mask="url(#mask-2)"></path>
                <path d="M184.734151,0 L184.734151,616" id="Path-3-Copy-3" stroke="#F4F4F4" mask="url(#mask-2)"></path>
                <path d="M234.734151,0 L234.734151,616" id="Path-3-Copy-4" stroke="#F4F4F4" mask="url(#mask-2)"></path>
                <path d="M284.734151,0 L284.734151,616" id="Path-3-Copy-5" stroke="#F4F4F4" mask="url(#mask-2)"></path>
                <path d="M334.734151,0 L334.734151,616" id="Path-3-Copy-6" stroke="#F4F4F4" mask="url(#mask-2)"></path>
                <path d="M384.734151,0 L384.734151,616" id="Path-3-Copy-7" stroke="#F4F4F4" mask="url(#mask-2)"></path>
                <path d="M434.734151,0 L434.734151,616" id="Path-3-Copy-8" stroke="#F4F4F4" mask="url(#mask-2)"></path>
                <path d="M484.734151,0 L484.734151,616" id="Path-3-Copy-9" stroke="#F4F4F4" mask="url(#mask-2)"></path>
                <path d="M534.734151,0 L534.734151,616" id="Path-3-Copy-10" stroke="#F4F4F4" mask="url(#mask-2)"></path>
                <path d="M584.734151,0 L584.734151,616" id="Path-3-Copy-11" stroke="#F4F4F4" mask="url(#mask-2)"></path>
                <path d="M634.734151,0 L634.734151,616" id="Path-3-Copy-12" stroke="#F4F4F4" mask="url(#mask-2)"></path>
                <path d="M684.734151,0 L684.734151,616" id="Path-3-Copy-13" stroke="#F4F4F4" mask="url(#mask-2)"></path>
                <path d="M734.734151,0 L734.734151,616" id="Path-3-Copy-14" stroke="#F4F4F4" mask="url(#mask-2)"></path>
                <path d="M784.734151,0 L784.734151,616" id="Path-3-Copy-15" stroke="#F4F4F4" mask="url(#mask-2)"></path>
                <path d="M406.234151,-248.25 L406.234151,564.75" id="Path-3" stroke="#F4F4F4" mask="url(#mask-2)" transform="translate(406.234151, 158.250000) rotate(-270.000000) translate(-406.234151, -158.250000) "></path>
                <path d="M406.234151,-299 L406.234151,514" id="Path-3-Copy-16" stroke="#F4F4F4" mask="url(#mask-2)" transform="translate(406.234151, 107.500000) rotate(-270.000000) translate(-406.234151, -107.500000) "></path>
                <path d="M406.234151,-349 L406.234151,464" id="Path-3-Copy-17" stroke="#F4F4F4" mask="url(#mask-2)" transform="translate(406.234151, 57.500000) rotate(-270.000000) translate(-406.234151, -57.500000) "></path>
                <path d="M406.234151,-399 L406.234151,414" id="Path-3-Copy-18" stroke="#F4F4F4" mask="url(#mask-2)" transform="translate(406.234151, 7.500000) rotate(-270.000000) translate(-406.234151, -7.500000) "></path>
                <path d="M406.234151,-198.25 L406.234151,614.75" id="Path-3-Copy" stroke="#F4F4F4" mask="url(#mask-2)" transform="translate(406.234151, 208.250000) rotate(-270.000000) translate(-406.234151, -208.250000) "></path>
                <path d="M406.234151,-148.25 L406.234151,664.75" id="Path-3-Copy-2" stroke="#F4F4F4" mask="url(#mask-2)" transform="translate(406.234151, 258.250000) rotate(-270.000000) translate(-406.234151, -258.250000) "></path>
                <path d="M406.234151,-98.25 L406.234151,714.75" id="Path-3-Copy-3" stroke="#F4F4F4" mask="url(#mask-2)" transform="translate(406.234151, 308.250000) rotate(-270.000000) translate(-406.234151, -308.250000) "></path>
                <path d="M406.234151,-48.25 L406.234151,764.75" id="Path-3-Copy-4" stroke="#F4F4F4" mask="url(#mask-2)" transform="translate(406.234151, 358.250000) rotate(-270.000000) translate(-406.234151, -358.250000) "></path>
                <path d="M406.234151,1.75 L406.234151,814.75" id="Path-3-Copy-5" stroke="#F4F4F4" mask="url(#mask-2)" transform="translate(406.234151, 408.250000) rotate(-270.000000) translate(-406.234151, -408.250000) "></path>
                <path d="M406.234151,51.75 L406.234151,864.75" id="Path-3-Copy-6" stroke="#F4F4F4" mask="url(#mask-2)" transform="translate(406.234151, 458.250000) rotate(-270.000000) translate(-406.234151, -458.250000) "></path>
                <path d="M406.234151,101.75 L406.234151,914.75" id="Path-3-Copy-7" stroke="#F4F4F4" mask="url(#mask-2)" transform="translate(406.234151, 508.250000) rotate(-270.000000) translate(-406.234151, -508.250000) "></path>
                <path d="M406.234151,151.75 L406.234151,964.75" id="Path-3-Copy-8" stroke="#F4F4F4" mask="url(#mask-2)" transform="translate(406.234151, 558.250000) rotate(-270.000000) translate(-406.234151, -558.250000) "></path>
                <path d="M406.234151,201.75 L406.234151,1014.75" id="Path-3-Copy-9" stroke="#F4F4F4" mask="url(#mask-2)" transform="translate(406.234151, 608.250000) rotate(-270.000000) translate(-406.234151, -608.250000) "></path>
            </g>
        </g>
    </g>
</svg>